<?xml version="1.0" standalone="no"?><!DOCTYPE svg PUBLIC "-//W3C//DTD SVG 1.1//EN" "http://www.w3.org/Graphics/SVG/1.1/DTD/svg11.dtd"><svg t="1647486908849" class="icon" viewBox="0 0 1024 1024" version="1.1" xmlns="http://www.w3.org/2000/svg" p-id="21063" xmlns:xlink="http://www.w3.org/1999/xlink" width="200" height="200"><defs><style type="text/css"></style></defs><path d="M524.901991 919.452911a38.296387 38.296387 0 0 1-17.475713-49.833089v-2.969506 1.638348-1.97967l-1.638348 2.969506a38.9449 38.9449 0 0 1-52.154082 11.229511c15.46191 13.072653 21.67398 34.063988 15.837365 53.451107l-2.969506 5.631822a13.516372 13.516372 0 0 1 2.320994-3.652151l-1.979671 3.652151 2.969506-5.2905c13.652901-15.700836 35.429278-21.571584 55.089455-14.847529zM340.417167 992.052212l4.949176 6.280334a394.090987 394.090987 0 0 1-33.005888-130.385204 118.165858 118.165858 0 0 1 58.741607-106.936347l75.910129 42.255728-106.595024 188.785489z" fill="#FFFFFF" p-id="21064"></path><path d="M318.94798 1005.909906l4.641986 6.280335a25.735718 25.735718 0 0 0 31.333408 9.898353 24.438693 24.438693 0 0 0 14.54034-29.353737c-5.939012-16.861333-11.878024-33.005888-17.168523-50.174411a311.866391 311.866391 0 0 1-6.928848-25.087206c-1.979671-8.601328-1.979671-8.260005-2.628183-12.219346v-8.567196c0-1.67248-1.979671-4.641986 0 0a44.235399 44.235399 0 0 1 0-11.570833v-12.86786a71.302275 71.302275 0 0 1 0-11.878023v-6.621657c0-2.286861 0-3.618019 0 0 0 3.652151 0 0 0 0 1.092232-7.918683 2.832977-15.769101 5.256367-23.414726a24.745883 24.745883 0 0 0 0-5.290499c1.67248-4.300664 0 0 0 0v-2.320993a110.929821 110.929821 0 0 1 5.290499-10.888188c2.320993-3.959341 5.290499-7.236038 7.27017-11.195379 1.979671-3.959341-3.310828 3.959341 0 1.97967l2.320993-2.662315 4.607854-5.256367 4.300664-3.959341 2.628183-2.320994c2.969506-2.662316 0 0 0 0s4.607854-3.310828 5.59769-3.959341l6.280334-3.652151h-26.418363l75.602939 42.597051a25.087206 25.087206 0 0 0 23.414725-43.245564l-73.589136-40.92457a15.837365 15.837365 0 0 0-5.290499-2.628184 39.593413 39.593413 0 0 0-37.955065 11.878024 132.023553 132.023553 0 0 0-34.644236 40.61738 174.927794 174.927794 0 0 0-17.509846 101.645848c5.665954 39.593413 16.110423 78.367652 31.06035 115.503543l45.532425-19.455384-4.607854-6.280335a27.066876 27.066876 0 0 0-15.530175-11.570833 25.087206 25.087206 0 0 0-27.715389 36.965229h0.341322zM232.798175 508.193401a2449.023248 2449.023248 0 0 0-139.600913 19.796706l155.47241 104.308164c2.047935 1.535951 4.403061 2.559919 6.928847 2.969506a10.239676 10.239676 0 0 0 5.59769-1.638349 204.622854 204.622854 0 0 0 55.46491-41.948538L232.798175 508.193401z" fill="#FFFFFF" p-id="21065"></path><path d="M232.456852 483.106195a2554.594305 2554.594305 0 0 0-146.188437 20.820674 25.087206 25.087206 0 0 0-5.290499 45.839615l95.058323 64.032106 47.546228 33.005888c8.396534 7.236038 18.499681 12.253479 29.353737 14.540339 11.946288 0.034132 23.551254-3.891077 33.005888-11.229511a235.990394 235.990394 0 0 0 49.184576-39.25209 25.428528 25.428528 0 0 0 0-35.326881 25.087206 25.087206 0 0 0-35.292749 0l-11.263644 11.195378-5.904879 4.949177-2.662316 2.320993a156.769436 156.769436 0 0 1-25.087206 16.52001c-1.979671 0-9.557031 3.618019-1.97967 1.638349a15.496043 15.496043 0 0 1 11.570833 0H261.810589l-14.506207-9.898354-27.408199-18.49968-113.523871-75.91013c-1.979671 15.188852-3.618019 30.719027-5.59769 45.873747l33.005888-5.597689 17.134391-2.628183h3.959341l9.557031-1.672481c23.141667-3.276696 46.249202-5.939012 69.356737-8.567195a25.735718 25.735718 0 0 0 24.404561-25.735719 25.087206 25.087206 0 0 0-25.735719-26.418363z" fill="#FFFFFF" p-id="21066"></path><path d="M667.847865 139.530942a3089.992817 3089.992817 0 0 0-423.820179 348.83162 30.719027 30.719027 0 0 0-9.898353 16.861333c0 9.898353 7.27017 19.114061 14.847529 27.066876l61.403923 63.690783a355.48741 355.48741 0 0 0 74.271781-55.772101l283.195299-400.712644z" fill="#FFFFFF" p-id="21067"></path><path d="M656.925544 118.061755c-78.19699 55.772101-155.096955 111.544201-229.027414 171.002585a2312.289444 2312.289444 0 0 0-106.287834 89.767824c-17.509846 15.496043-33.005888 31.333408-50.857057 47.170773-17.817036 15.837365-32.971756 33.005888-48.160608 48.843253-11.809759 12.11695-16.110423 29.69506-11.229511 45.873747 5.324631 12.663066 13.448107 23.960841 23.756048 33.005888l58.741606 58.434417c8.191741 7.748021 20.479351 9.352237 30.377705 3.959341a379.550648 379.550648 0 0 0 79.186826-60.072764 25.087206 25.087206 0 0 0 0-35.326882 25.735718 25.735718 0 0 0-35.292749 0c-5.256367 5.290499-10.888189 10.239676-16.485878 15.188853-2.935374 2.73058-6.041409 5.256367-9.249841 7.611492 0 0-4.949177 4.266532-2.320993 1.979671l-2.969506 2.28686c-12.219346 9.181576-24.984809 17.543978-38.262255 25.087206l30.377705 3.652151c-16.52001-16.52001-33.04002-33.005888-49.218708-49.833089l-10.888189-10.92232-4.949176-4.949177-3.310829-2.628183c-2.969506-3.310828 1.979671 3.310828 0 0l-2.969506-4.607855V508.841913c0 1.67248 0 1.67248 0 0 0-1.638348 1.67248-3.276696 1.672481-3.276696s-2.969506 3.959341 0 0a1673.265413 1673.265413 0 0 1 95.058323-92.771462 1987.316268 1987.316268 0 0 1 101.304525-86.149805l26.759686-20.786542 12.526537-9.898353 3.310828-2.628184s-3.959341 2.969506 0 0l6.928848-4.949176 52.461272-37.955065a7799.219691 7799.219691 0 0 1 121.510818-89.119311 25.735718 25.735718 0 0 0 8.874386-33.005889 25.428528 25.428528 0 0 0-31.36754-10.239675z" fill="#FFFFFF" p-id="21068"></path><path d="M752.32519 192.333536l-92.088817-51.505569a3632.83216 3632.83216 0 0 0-132.023553 153.79993 932.732063 932.732063 0 0 0-137.314052 208.275004 187.488463 187.488463 0 0 0-19.455384 112.568169 233.020888 233.020888 0 0 0 105.297999 132.023553l301.660848-540.65488-26.077041-14.506207z" fill="#FFFFFF" p-id="21069"></path><path d="M764.544536 170.557159l-80.552116-45.225235-11.536701-6.280334a25.087206 25.087206 0 0 0-30.036382 4.300664 3314.105187 3314.105187 0 0 0-106.287834 121.783877c-35.634072 42.562919-70.960953 86.149805-102.635684 132.023552a639.638411 639.638411 0 0 0-76.251452 140.966203 211.244511 211.244511 0 0 0-13.857694 69.971118c0.034132 24.233899 5.700086 48.19474 16.485878 69.971117a289.782824 289.782824 0 0 0 104.308163 109.905853c11.809759 6.007276 26.281834 1.809009 33.005888-9.591163l30.377705-53.79243 72.292111-129.054046 87.105508-155.47241 75.261617-134.344546c12.219346-21.776377 25.087206-43.552754 36.658039-66.011776a26.077041 26.077041 0 0 0-9.557031-33.005889 25.428528 25.428528 0 0 0-33.04002 9.557031l-30.377705 53.826562-72.257978 129.054047-87.139641 155.47241-74.613104 132.672065c-12.185214 21.776377-25.394396 43.245564-36.623907 66.011777l33.005889-9.557031-12.526537-9.24984-2.969506-1.979671s4.607854 3.618019 0 0l-6.621657-5.290499c-8.123476-6.587525-16.042159-13.516372-23.756048-20.820674a233.6694 233.6694 0 0 1-21.127864-23.073403l-0.989835-1.331158s3.310828 4.641986 0 0l-3.959342-5.597689a177.726639 177.726639 0 0 1-8.260005-13.209182 155.506542 155.506542 0 0 1-6.587525-12.526537c-1.979671-4.300664 0-2.320993 0-2.969506v2.969506-2.320993l-2.628183-7.611492a90.109147 90.109147 0 0 1-3.310828-13.516372v-3.618019c0-4.300664 0 0 0 0a41.914406 41.914406 0 0 1-2.662316-7.611492 132.023553 132.023553 0 0 1 0-16.178688 13.516372 13.516372 0 0 0 0-3.618019c0-4.607854 0 0 0 0a72.292111 72.292111 0 0 0 0-8.908517c1.843142-10.649263 4.471325-21.127864 7.952815-31.36754l2.628183-6.928848V525.669114s2.628183-5.939012 0-1.979671c-2.628183 3.993474 0 0 0 0v-4.266531l3.959341-8.908518c5.290499-11.570834 10.922321-22.800345 16.827201-33.005888 12.185214-22.697948 25.496793-44.713251 39.934735-66.011777 7.27017-10.922321 14.84753-21.469187 22.766213-33.005888l5.631821-7.918682 1.979671-2.662316 11.878024-15.496043c15.837365-20.138029 33.005888-40.276058 48.843253-60.072764a3170.544933 3170.544933 0 0 1 115.196352-132.023553l-30.036382 4.266532 80.210793 45.225234 11.536702 6.280335a25.087206 25.087206 0 1 0 24.780015-43.552754l7.57736-1.979671z" fill="#FFFFFF" p-id="21070"></path><path d="M437.796483 815.144747c0 2.969506-5.939012 0-8.601328 0a231.041217 231.041217 0 0 1-36.316716-30.377705 76.251452 76.251452 0 0 1-20.479352-39.934735 91.747495 91.747495 0 0 1 27.442331-63.690783l86.456996 46.863583-48.501931 87.13964z" fill="#FFFFFF" p-id="21071"></path><path d="M415.985974 802.925401l9.898353-8.874386a17.168523 17.168523 0 0 1 16.861333 0c2.184464 0 2.184464 0 0 0a13.516372 13.516372 0 0 0-3.652151-2.320993l-3.959342-3.310829a215.852365 215.852365 0 0 1-16.485878-13.857694l-7.611492-7.918683-2.969506-3.310828c-1.979671-2.320993 2.969506 3.959341 0 0a70.31244 70.31244 0 0 1-5.256367-8.260005 14.84753 14.84753 0 0 1-1.97967-3.959342V750.464129c0-1.023968-2.969506-6.928847-2.320993-7.918683 0.682645-1.023968 0 3.959341 0 1.979671a6.280334 6.280334 0 0 0 0-2.662316V737.289079c0-1.638348 0 4.949177 0 0a27.408199 27.408199 0 0 1 0-4.949176v-4.300664c0-3.959341 0 0 0 0 1.740745-2.798845 3.208432-5.802483 4.300663-8.874386 0-3.003638 3.618019-5.631822 5.256367-8.294137 1.501819-2.696448 3.276696-5.256367 5.290499-7.57736-4.607854 4.607854 0 0 0 0 1.194629-1.36529 2.286861-2.798845 3.310829-4.300664l-30.036382 4.300664 75.910129 42.562919 10.580998 5.939011a25.087206 25.087206 0 1 0 24.404561-43.552754l-75.602939-42.562919-10.888189-5.939011a25.087206 25.087206 0 0 0-30.036382 4.266531 174.279281 174.279281 0 0 0-30.684895 50.857056 79.186826 79.186826 0 0 0 4.607854 60.072765c9.318105 16.724804 22.288361 31.162747 37.955065 42.221596 8.157608 7.065376 16.724804 13.584636 25.76985 19.455384a30.036382 30.036382 0 0 0 40.276058-9.557031 25.087206 25.087206 0 0 0-9.55703-33.005888 25.428528 25.428528 0 0 0-33.381343 8.908518zM746.7275 245.443321a162.059935 162.059935 0 0 1-77.58261-55.430778 60.072764 60.072764 0 0 1-12.219346-28.056712c0.887439-15.018191 9.010915-28.671092 21.810509-36.623907a637.010228 637.010228 0 0 1 149.840589-94.40981c7.133641-4.061738 15.257117-6.007276 23.414725-5.597689 9.352237 0.341323 17.646375 6.143805 21.161996 14.84753l-117.176022 208.582194-9.249841-3.276696z" fill="#FFFFFF" p-id="21072"></path><path d="M752.973702 221.380083l-4.607854-1.67248-7.918682-3.618019-17.475713-9.898353-6.280335-4.300664s-5.290499-3.959341-1.979671 0h-1.97967a249.950485 249.950485 0 0 1-13.857695-12.526537l-6.280334-6.928847-2.662316-5.939012s3.003638 3.959341 0 0a40.412587 40.412587 0 0 1-4.949176-7.611492l-1.297026-1.979671v-2.969506 2.662316c0 2.628183 0-5.631822-2.320993-7.952815 1.638348 3.652151 0 4.300664 0 0 0-4.266532-1.979671 4.641986 0 0a17.817036 17.817036 0 0 0 0-3.276696c0 4.266532-1.638348 3.618019 0 0l2.320993-3.652151v1.97967a8.908518 8.908518 0 0 1 2.286861-2.628183c8.32827-8.703724 17.407449-16.656539 27.066876-23.756048l2.320993-1.67248c-3.310828 2.320993 1.979671 0 1.979671 0l6.621657-4.949177 16.8272-12.185214a689.4715 689.4715 0 0 1 66.011777-39.934735l20.479351-10.239676 10.205544-4.949177 4.300663-1.97967h-2.662315 9.898353-2.969506 4.641986s-5.631822-2.969506-1.97967 0h1.97967c1.979671 0 0 0-2.320993-1.979671s3.310828 4.266532 0 0c-3.310828-4.300664 0-2.320993 0 0v-2.320993c0-6.280334 0-12.560669 2.320993-19.114062l-39.593413 70.585499-63.076402 112.226846-14.506207 25.76985a25.121338 25.121338 0 1 0 43.894076 24.404561l30.719028-54.782265 56.761935-101.645848c7.236038-12.901991 14.506207-25.428528 21.435055-38.296388 7.850418-9.113311 11.536701-21.0596 10.239676-33.005888a49.491766 49.491766 0 0 0-51.164247-33.005888 159.397619 159.397619 0 0 0-56.420613 22.1177 624.142369 624.142369 0 0 0-93.761298 58.093093c-30.719027 22.42489-75.568807 53.451107-61.36979 96.355349 7.065376 18.533813 18.363152 35.15622 33.005888 48.536063 13.584636 13.175049 29.012415 24.302164 45.873748 33.005888 9.181576 4.573722 18.670342 8.533063 28.363902 11.878024 13.413975 3.344961 26.964479-4.778515 30.377704-18.158358a25.428528 25.428528 0 0 0-18.499681-30.719027zM336.457826 992.052212h-7.918683c44.713251-6.485128 87.992947-20.411087 128.064211-41.265894a118.507181 118.507181 0 0 0 63.042271-105.946511l-75.60294-44.201267-107.584859 191.413672z" fill="#FFFFFF" p-id="21073"></path><path d="M336.116503 965.975171h-7.918683c2.320993 16.52001 4.949177 33.005888 7.27017 49.184576 33.722665-5.768351 66.899215-14.608604 98.983532-26.384232a231.041217 231.041217 0 0 0 47.239038-25.428528c15.393646-11.263643 28.978282-24.84828 40.276058-40.276058 9.659427-13.891827 16.724804-29.422002 20.786541-45.873747 1.979671-9.318105 2.969506-18.841003 2.969506-28.398034a30.377705 30.377705 0 0 0-13.550504-27.066876c-12.219346-7.236038-24.745883-13.857695-36.965229-20.479352l-38.296388-21.742245a25.121338 25.121338 0 1 0-24.40456 43.894077l75.568807 42.255729-12.867859-21.161997V856.751963c0.170661 2.286861 0.170661 4.607854 0 6.928847 0 3.618019-1.638348 7.236038-2.628184 10.888189V874.842057a18.158358 18.158358 0 0 1-2.969506 6.280334c-1.67248 3.310828-3.652151 6.587525-5.631821 9.898353a33.005888 33.005888 0 0 1-2.628184 4.641987l-1.638348 1.97967c-2.662316 3.959341 2.286861-2.969506 0 0-5.085706 6.21207-10.580998 12.048685-16.52001 17.475714l-3.959341 3.618018-2.320994 1.672481c-1.979671 1.979671 0 0 0 0a80.552116 80.552116 0 0 1-10.239675 7.27017 291.489436 291.489436 0 0 1-22.42489 11.878023 19.114061 19.114061 0 0 1-5.939012 2.628184s4.300664-1.638348 0 0h-2.320993l-12.867859 4.607854c-7.918683 2.969506-16.485878 5.290499-24.745883 7.611492-19.114061 5.290499-38.603578 9.215708-58.093094 13.209182a24.745883 24.745883 0 0 0-17.817036 27.715389 25.428528 25.428528 0 0 0 25.087206 21.435054h7.57736a24.745883 24.745883 0 0 0 17.509845-7.236037 27.066876 27.066876 0 0 0 7.236038-18.158358 25.735718 25.735718 0 0 0-23.756048-25.428528zM806.458942 829.685087a2255.425112 2255.425112 0 0 1 55.772101 129.702559l-169.978618-78.572445a14.199017 14.199017 0 0 1-6.280334-4.266532 10.922321 10.922321 0 0 1 0-5.631821 209.913353 209.913353 0 0 1 6.621657-68.94715l113.865194 27.715389z" fill="#FFFFFF" p-id="21074"></path><path d="M784.682565 842.211623c9.898353 21.127864 19.455384 42.255729 28.705224 63.690783 0 2.662316 2.320993 5.290499 3.310829 7.611493 0.989835 2.286861 1.979671 4.607854 0 1.97967-1.979671-2.662316 0 1.638348 0 1.979671l6.587525 15.837365c4.641986 10.922321 8.908518 21.776377 13.209181 33.005888l36.316717-28.705224-124.10487-57.103258-30.036382-13.857695-14.199017-6.621657h-2.969506a17.509846 17.509846 0 0 1 7.57736 9.249841c1.979671 7.27017 0 0 0-2.628184a152.502904 152.502904 0 0 1 0-30.036382v-3.310829a51.812759 51.812759 0 0 1 0-7.57736c0-5.290499 2.320993-10.580998 3.652151-15.530175a25.428528 25.428528 0 0 0-18.499681-30.377704 26.077041 26.077041 0 0 0-30.377705 18.499681 258.108093 258.108093 0 0 0-7.918682 55.123587 109.223208 109.223208 0 0 0 2.013803 29.353737c3.822812 11.946288 13.175049 21.264393 25.053073 25.087206l104.956676 48.194741 59.082929 27.408198c8.806121 4.744383 19.557781 3.822812 27.408199-2.320993a24.745883 24.745883 0 0 0 8.908518-26.384231 2247.404032 2247.404032 0 0 0-58.400284-135.675704 25.087206 25.087206 0 0 0-33.005888-8.908518 25.735718 25.735718 0 0 0-7.27017 32.016053z" fill="#FFFFFF" p-id="21075"></path><path d="M893.598583 265.922672a3046.132872 3046.132872 0 0 1-76.251452 543.624386 30.377705 30.377705 0 0 1-9.215708 17.168523 37.613742 37.613742 0 0 1-30.719028 0l-85.15997-19.796707c-1.023968-31.196879 1.979671-62.359625 8.908518-92.771462L893.598583 265.922672z" fill="#FFFFFF" p-id="21076"></path><path d="M868.8527 265.922672a13278.709108 13278.709108 0 0 1-11.263644 132.023553 2977.083326 2977.083326 0 0 1-6.587524 66.011776c0 5.290499 0 10.580998-1.638349 15.837365V491.3662c0-5.290499 0 0 0 0l-3.959341 33.005888a2122.275195 2122.275195 0 0 1-47.853418 261.726112c0 5.631822-3.310828 11.229511-4.607854 16.827201-1.36529 5.631822 2.286861-3.959341 0 0-2.320993 3.959341 0 1.979671 0 0s-3.310828 2.662316 0 0c-3.652151 2.662316 3.959341 0 0 0h1.979671-5.939012s4.949177 0 0 0l-16.861333-3.618019-76.558642-17.817036 19.114061 23.756048a429.076546 429.076546 0 0 1 0-45.873747v-4.949177-1.67248c0-1.638348 0-7.236038 1.706613-10.888189 1.604216-3.618019 2.935374-15.15472 4.573722-22.766212a25.087206 25.087206 0 1 0-48.501931-11.878024c-7.57736 32.42564-10.922321 65.738718-9.898353 99.017664 0.375455 11.297776 8.191741 20.991335 19.114061 23.756048l70.31244 16.52001c23.79018 5.597689 52.495404 13.857695 71.984921-6.928847 8.362402-10.990585 13.823562-23.960841 15.837365-37.647875 2.969506-11.195379 5.597689-22.42489 8.567195-33.005888 5.290499-22.42489 9.898353-45.225235 14.54034-67.650124 17.817036-93.078653 29.012415-186.805818 37.955064-280.908438 4.949177-52.11995 9.215708-104.274031 13.17505-156.769436a24.745883 24.745883 0 0 0-25.394396-24.40456 25.735718 25.735718 0 0 0-19.796706 26.725553z" fill="#FFFFFF" p-id="21077"></path><path d="M804.820594 221.687273l91.747495 51.505569a3397.319618 3397.319618 0 0 1-62.052435 193.734665 915.904863 915.904863 0 0 1-105.605189 225.78485 187.488463 187.488463 0 0 1-86.149806 75.227485 231.041217 231.041217 0 0 1-165.02944-21.776377L778.743553 207.215198l26.077041 14.506207z" fill="#FFFFFF" p-id="21078"></path><path d="M792.567115 243.804973l80.210794 44.883912 11.604966 6.621657-11.912157-29.353737a4314.658036 4314.658036 0 0 1-46.863582 149.157943c-8.260005 24.438693-16.8272 48.843253-25.428528 73.281946l-13.857695 36.623907-1.638348 3.959341c1.979671-4.607854 0 0 0 0l-3.652151 8.908518-7.918683 19.148194c-10.239676 23.756048-21.435055 46.863583-33.005888 69.629795-6.382731 11.263643-12.970256 22.254229-19.796706 33.04002l-10.239676 15.15472c-2.798845 4.949177-6.143805 9.625295-9.898353 13.857695 5.290499-5.256367 0 0-1.979671 2.662316l-4.949176 6.280334-10.888189 12.185214-11.878024 11.263644-5.597689 4.607854c-2.320993 1.979671 0 0 0 0s-3.652151 2.628183-4.300664 3.276696a107.58486 107.58486 0 0 1-13.209182 7.918682l-7.270169 3.652151s-3.959341 2.286861 0 0l-4.949177 1.979671-12.526537 3.618019-7.270169 1.638348h-3.959342c-0.341323 0 5.939012 0 0 0-10.990585 1.023968-22.015303 1.023968-33.005888 0h-4.300664c-4.607854 0 3.959341 0 0 0h-8.225873a143.560254 143.560254 0 0 1-17.168523-3.276696 257.45958 257.45958 0 0 1-33.005888-9.557031l-8.260005-3.003638h-3.959341c-4.607854-1.638348 3.618019 0 0 0l-16.827201-7.236038 9.557031 33.005888 30.377705-53.485239 72.292111-129.054047 87.105508-155.47241 75.261617-134.651736c12.219346-21.776377 25.087206-43.245564 36.658039-66.011776a25.087206 25.087206 0 0 0-41.914406-24.09737l-30.377705 53.792429-72.292111 128.746857-86.149805 155.7796-75.261617 134.344546c-12.185214 21.776377-25.053073 43.211432-36.623907 66.011776a25.087206 25.087206 0 0 0 9.557031 33.005888c41.095232 20.479351 86.149805 31.742995 132.057685 33.005888a165.029441 165.029441 0 0 0 68.94715-15.871497 176.258952 176.258952 0 0 0 57.137391-42.904241 528.09421 528.09421 0 0 0 82.838976-132.023553 1599.130161 1599.130161 0 0 0 60.414087-154.789765c19.796706-57.410449 38.159858-115.298749 55.089456-173.596636a25.735718 25.735718 0 0 0-11.878024-28.056712l-80.893439-45.873747-11.536701-6.621657a25.121338 25.121338 0 0 0-24.40456 43.894077z" fill="#FFFFFF" p-id="21079"></path><path d="M437.455161 814.803425c-1.979671 2.662316 2.320993 5.939012 5.290499 7.270169 14.472075 6.348599 29.490266 11.297776 44.883912 14.84753 14.984059 3.48149 30.650763 2.218596 44.883912-3.618019a91.098982 91.098982 0 0 0 39.934735-56.454745l-86.491128-48.809121-48.50193 86.764186z" fill="#FFFFFF" p-id="21080"></path><path d="M415.678784 802.61821a29.69506 29.69506 0 0 0 13.857694 40.583249 180.900938 180.900938 0 0 0 30.377705 11.878023c17.748771 6.82645 36.794568 9.659427 55.7721 8.260006a81.849141 81.849141 0 0 0 53.79243-27.408199c12.082817-16.042159 21.332658-33.995723 27.408199-53.143917a25.087206 25.087206 0 0 0-12.219346-27.715389l-75.60294-42.562919-10.888188-5.939012a25.087206 25.087206 0 0 0-24.404561 43.552754l75.91013 43.894077 10.580998 5.939012-11.912156-27.715389-1.979671 4.949176s-2.320993 5.597689 0 1.979671c2.320993-3.618019 0 0 0 1.979671l-1.97967 4.949176c-2.73058 5.563557-5.836615 10.990585-9.215709 16.178688-1.706613 2.969506 3.276696-3.959341 0 0l-3.652151 3.959341-2.969506 2.969506c-3.959341 3.310828 0 0 0 0l-4.641986 2.969506s-5.597689 2.628183-1.638348 0H515.344961h-3.959342a49.491766 49.491766 0 0 1-9.898353 0c-3.959341 0-1.638348 0 0 0a29.69506 29.69506 0 0 0-5.290499 0l-9.898353-1.979671a232.372375 232.372375 0 0 1-21.435055-6.928847s-5.973144-2.628183-2.662315 0c3.310828 2.628183-1.979671 0-2.628184 0l-4.949176-1.97967a19.796706 19.796706 0 0 1 9.215708 16.485878l-4.949177 9.24984a25.087206 25.087206 0 1 0-43.552754-24.745883l0.341323 0.341322zM762.223543 254.044649c24.916544 20.923071 55.46491 34.029856 87.788153 37.613742 10.410337 1.501819 21.025468 0.136529 30.719028-3.959341 12.355875-8.533063 19.762574-22.595551 19.796706-37.613743 9.147444-58.673342 10.034882-118.336519 2.628183-177.248787a45.532425 45.532425 0 0 0-7.57736-22.766212 23.756048 23.756048 0 0 0-23.448857-10.239676l-116.152055 208.616327 6.246202 5.59769z" fill="#FFFFFF" p-id="21081"></path><path d="M744.440639 271.861684a192.437639 192.437639 0 0 0 107.243538 44.883912c20.342822 3.071903 40.958703-3.48149 55.7721-17.817035 11.536701-16.042159 18.260755-35.053823 19.455384-54.782266 5.188102-37.613742 7.065376-75.602939 5.631822-113.558004 0-18.465549-1.979671-36.965229-4.300664-55.430778a90.109147 90.109147 0 0 0-8.260005-33.005888 54.133752 54.133752 0 0 0-21.776377-22.117699 35.326881 35.326881 0 0 0-48.501931 8.260005l-3.959341 6.587524-18.806871 33.005889-56.454746 101.67998c-12.219346 21.776377-24.745883 43.552754-36.623907 66.011776a25.087206 25.087206 0 1 0 43.552754 24.404561l39.593413-70.312441 62.393758-111.885523c4.607854-8.567195 9.557031-17.168523 14.540339-25.735719l-15.188852 11.878024h-1.979671-1.67248-1.979671l3.310829 1.979671c2.628183 0-4.607854-4.607854 0 0 4.607854 4.641986 1.638348 1.979671 1.97967 1.979671l-1.97967-2.320994a14.199017 14.199017 0 0 1 0 2.320994V65.907673v3.310828a12.867859 12.867859 0 0 1 0 6.928848v4.949176l1.97967 20.820674c2.320993 26.281834 2.969506 52.768462 1.979671 79.186826 0 12.526537-1.638348 25.428528-2.969506 37.955065v13.209182c0 6.587525-1.979671 13.209182-3.310828 19.796706a66.011776 66.011776 0 0 1-1.638349 7.918683V263.601679l-1.97967 3.003638c0-2.320993 3.310828-3.652151 0 0-2.320993 1.979671-1.979671 0 0 0-2.628183 0-1.979671 0 0 0a34.644236 34.644236 0 0 1-6.928847 1.979671c-3.310828 0 5.939012 0 0 0h-17.168523c-6.587525 0-13.516372-2.662316-20.138029-4.641986l-9.898354-3.310829-5.290499-2.286861c-6.246202-2.969506-12.526537-6.621657-18.772739-10.239675l-7.952814-5.290499c-5.290499-3.618019 2.969506 2.662316 0 0l-5.2905-4.266532a25.735718 25.735718 0 0 0-35.292749 0 25.428528 25.428528 0 0 0 0.682645 33.313078zM703.140614 362.619344c-48.501931-23.414725-115.503542 8.260005-151.478937 72.974756-35.975394 64.680618-28.398034 137.962565 16.827201 167.009111l134.651736-239.949735z" fill="#FFFFFF" p-id="21082"></path><path d="M707.099955 355.349174a120.145529 120.145529 0 0 0-132.023552 36.316717 179.876971 179.876971 0 0 0-50.822924 153.492739 99.017664 99.017664 0 0 0 41.607215 66.011776 8.260005 8.260005 0 0 0 11.195379-2.969506l45.566557-81.541951 70.960953-128.678592 16.827201-29.387869a8.567195 8.567195 0 0 0-14.84753-8.260005l-45.566557 81.200628-72.257979 127.381567-16.52001 29.695059 11.229511-3.276696a104.615354 104.615354 0 0 1-30.377705-114.855029 161.411422 161.411422 0 0 1 92.088818-110.247176 83.180299 83.180299 0 0 1 66.011776 0c8.260005 4.300664 16.52001-10.239676 6.928847-14.84753z" fill="#FFFFFF" p-id="21083"></path><path d="M698.53276 359.99116h-1.638348l-134.685869 239.26709h1.672481c48.501931 29.729192 118.131726-3.276696 155.438278-69.288472 37.306552-66.011776 27.715389-142.570419-20.820674-169.978618z" fill="#FFFFFF" p-id="21084"></path><path d="M702.492101 352.720991h-1.638348a8.567195 8.567195 0 0 0-11.263643 3.310828L644.091817 436.925257l-72.257978 129.361237-16.861333 30.036382a8.260005 8.260005 0 0 0 3.310828 11.229512c45.873747 27.715389 102.977006 2.969506 137.314052-33.005889a178.887135 178.887135 0 0 0 51.812759-158.100593 96.696671 96.696671 0 0 0-44.883912-64.032106 8.362402 8.362402 0 1 0-8.260005 14.506208c40.61738 23.107535 45.225235 76.899965 33.005888 117.517345a160.762909 160.762909 0 0 1-94.375678 111.544201 78.538313 78.538313 0 0 1-66.011776-4.300664l3.276696 11.263643 45.566557-80.893438 72.257979-129.361237 16.861333-29.69506-11.570834 2.935374h1.67248c8.874386 6.280334 17.134391-8.260005 7.57736-13.209181z" fill="#FFFFFF" p-id="21085"></path><path d="M340.417167 992.052212l4.949176 6.280334a394.090987 394.090987 0 0 1-33.005888-130.385204 118.165858 118.165858 0 0 1 58.741607-106.936347l75.910129 42.255728-106.595024 188.785489z" fill="#EDA146" p-id="21086"></path><path d="M232.798175 508.193401a2449.023248 2449.023248 0 0 0-139.600913 19.796706l155.47241 104.308164c2.047935 1.535951 4.403061 2.559919 6.928847 2.969506a10.239676 10.239676 0 0 0 5.59769-1.638349 204.622854 204.622854 0 0 0 55.46491-41.948538L232.798175 508.193401z" fill="#3870AF" p-id="21087"></path><path d="M667.847865 139.530942a3089.992817 3089.992817 0 0 0-423.820179 348.83162 30.719027 30.719027 0 0 0-9.898353 16.861333c0 9.898353 7.27017 19.114061 14.847529 27.066876l61.403923 63.690783a355.48741 355.48741 0 0 0 74.271781-55.772101l283.195299-400.712644z" fill="#E8891E" p-id="21088"></path><path d="M752.32519 192.333536l-92.088817-51.505569a3632.83216 3632.83216 0 0 0-132.023553 153.79993 932.732063 932.732063 0 0 0-137.314052 208.275004 187.488463 187.488463 0 0 0-19.455384 112.568169 233.020888 233.020888 0 0 0 105.297999 132.023553l301.660848-540.65488-26.077041-14.506207z" fill="#3870AF" p-id="21089"></path><path d="M437.796483 815.144747c0 2.969506-5.939012 0-8.601328 0a231.041217 231.041217 0 0 1-36.316716-30.377705 76.251452 76.251452 0 0 1-20.479352-39.934735 91.747495 91.747495 0 0 1 27.442331-63.690783l86.456996 46.863583-48.501931 87.13964z" fill="#E8891E" p-id="21090"></path><path d="M746.7275 245.443321a162.059935 162.059935 0 0 1-77.58261-55.430778 60.072764 60.072764 0 0 1-12.219346-28.056712c0.887439-15.018191 9.010915-28.671092 21.810509-36.623907a637.010228 637.010228 0 0 1 149.840589-94.40981c7.133641-4.061738 15.257117-6.007276 23.414725-5.597689 9.352237 0.341323 17.646375 6.143805 21.161996 14.84753l-117.176022 208.582194-9.249841-3.276696z" fill="#5DBACD" p-id="21091"></path><path d="M336.457826 992.052212h-7.918683c44.713251-6.485128 87.992947-20.411087 128.064211-41.265894a118.507181 118.507181 0 0 0 63.042271-105.946511l-75.60294-44.201267-107.584859 191.413672z" fill="#EDB822" p-id="21092"></path><path d="M806.458942 829.685087a2255.425112 2255.425112 0 0 1 55.772101 129.702559l-169.978618-78.572445a14.199017 14.199017 0 0 1-6.280334-4.266532 10.922321 10.922321 0 0 1 0-5.631821 209.913353 209.913353 0 0 1 6.621657-68.94715l113.865194 27.715389z" fill="#3870AF" p-id="21093"></path><path d="M893.598583 265.922672a3046.132872 3046.132872 0 0 1-76.251452 543.624386 30.377705 30.377705 0 0 1-9.215708 17.168523 37.613742 37.613742 0 0 1-30.719028 0l-85.15997-19.796707c-1.023968-31.196879 1.979671-62.359625 8.908518-92.771462L893.598583 265.922672z" fill="#E8891E" p-id="21094"></path><path d="M804.820594 221.687273l91.747495 51.505569a3397.319618 3397.319618 0 0 1-62.052435 193.734665 915.904863 915.904863 0 0 1-105.605189 225.78485 187.488463 187.488463 0 0 1-86.149806 75.227485 231.041217 231.041217 0 0 1-165.02944-21.776377L778.743553 207.215198l26.077041 14.506207z" fill="#3870AF" p-id="21095"></path><path d="M437.455161 814.803425c-1.979671 2.662316 2.320993 5.939012 5.290499 7.270169 14.472075 6.348599 29.490266 11.297776 44.883912 14.84753 14.984059 3.48149 30.650763 2.218596 44.883912-3.618019a91.098982 91.098982 0 0 0 39.934735-56.454745l-86.491128-48.809121-48.50193 86.764186z" fill="#E8891E" p-id="21096"></path><path d="M762.223543 254.044649c24.916544 20.923071 55.46491 34.029856 87.788153 37.613742 10.410337 1.501819 21.025468 0.136529 30.719028-3.959341 12.355875-8.533063 19.762574-22.595551 19.796706-37.613743 9.147444-58.673342 10.034882-118.336519 2.628183-177.248787a45.532425 45.532425 0 0 0-7.57736-22.766212 23.756048 23.756048 0 0 0-23.448857-10.239676l-116.152055 208.616327 6.246202 5.59769zM703.140614 362.619344c-48.501931-23.414725-115.503542 8.260005-151.478937 72.974756-35.975394 64.680618-28.398034 137.962565 16.827201 167.009111l134.651736-239.949735z" fill="#5DBACD" p-id="21097"></path><path d="M698.53276 359.99116h-1.638348l-134.685869 239.26709h1.672481c48.501931 29.729192 118.131726-3.276696 155.438278-69.288472 37.306552-66.011776 27.715389-142.570419-20.820674-169.978618z" fill="#5DBACD" p-id="21098"></path><path d="M656.925544 384.429853a74.271781 74.271781 0 0 0-50.481601 25.394396c-13.311578 14.335546-24.438693 30.582498-33.005889 48.19474a11.878024 11.878024 0 1 0 20.479352 11.570834c9.557031-13.891827 18.772739-28.398034 29.69506-41.607216 5.324631-6.621657 11.297776-12.697198 17.817035-18.158358 6.280334-5.256367 13.516372-9.215708 20.138029-14.506207a5.939012 5.939012 0 0 0-4.641986-10.922321zM565.178049 505.189762v2.013803a4.607854 4.607854 0 0 0 0 1.979671 24.09737 24.09737 0 0 0-2.286861 6.280334 16.52001 16.52001 0 0 0 2.969506 16.178688 9.898353 9.898353 0 0 0 15.496043-1.979671 13.209182 13.209182 0 0 0 0-9.24984v-2.320993c0-2.320993 0 0 0 0-0.341323-3.071903-0.341323-6.143805 0-9.215708a7.57736 7.57736 0 0 0-14.506207-3.310829l-1.672481-0.341322z" fill="#FFFFFF" p-id="21099"></path></svg>